<svg width="1282" height="22" xmlns="http://www.w3.org/2000/svg" xmlns:xlink="http://www.w3.org/1999/xlink" overflow="hidden"><defs><clipPath id="clip0"><path d="M1 532 1283 532 1283 554 1 554Z" fill-rule="evenodd" clip-rule="evenodd"/></clipPath></defs><g clip-path="url(#clip0)" transform="translate(-1 -532)"><path d="M2 537.694C34.0234 545.904 1.9979 538.085 92.5717 537.694 105.369 537.639 118.164 538.053 130.96 538.232 134.559 538.412 138.164 538.502 141.756 538.77 145.365 539.04 148.932 539.814 152.553 539.847L200.538 539.309C252.675 537.081 224.611 538.082 336.695 539.309 344.702 539.396 352.69 540.026 360.688 540.385 481.643 538.447 405.471 539.159 589.216 540.385 656.991 542.482 624.001 542.4 688.186 540.923 690.985 540.744 693.791 540.641 696.583 540.385 703.59 539.744 710.557 538.757 717.576 538.232 744.752 536.2 731.952 536.849 755.964 536.079 758.564 535.72 761.133 535.058 763.762 535.003 766.341 534.949 787.944 535.705 793.153 536.079 799.36 536.525 805.538 537.265 811.747 537.694 837.311 539.459 822.129 538.677 857.333 539.309L868.729 540.385 892.122 542 933.509 541.462C935.916 541.408 938.323 541.229 940.707 540.923 942.531 540.689 944.284 540.105 946.105 539.847 948.09 539.566 950.109 539.532 952.103 539.309 953.31 539.173 954.497 538.921 955.702 538.77L973.696 536.617C975.294 536.429 976.883 536.102 978.495 536.079L1055.27 535.003 1135.65 535.541C1138.85 535.579 1142.04 535.974 1145.24 536.079 1205.62 538.061 1166.75 536.302 1196.23 537.694 1199.43 538.053 1202.61 538.554 1205.82 538.77 1210.61 539.093 1215.42 539.275 1220.22 539.309L1282 539.309" stroke="#FFFFFF" stroke-width="4" stroke-miterlimit="8" fill="none" fill-rule="evenodd"/></g></svg>