<svg width="760" height="14" xmlns="http://www.w3.org/2000/svg" xmlns:xlink="http://www.w3.org/1999/xlink" overflow="hidden"><defs><clipPath id="clip0"><path d="M129 577 1147 577 1147 591 129 591Z" fill-rule="evenodd" clip-rule="evenodd"/></clipPath></defs><g clip-path="url(#clip0)" transform="translate(-129 -577)"><path d="M130 582.794C133.129 583.162 137.433 581.548 141.772 581.371 146.111 581.193 150.827 581.652 156.036 581.726 161.244 581.801 167.932 582.06 173.023 581.819 178.113 581.579 180.322 580.561 186.579 580.284 192.837 580.008 204.829 579.906 210.565 580.162 216.301 580.418 214.416 580.948 220.994 581.819 223.045 582.091 225.156 582.22 227.251 582.372 232.804 582.773 238.349 583.238 243.936 583.476 259.909 584.159 291.907 585.133 291.907 585.133 385.342 584.123 314.079 586.376 359.692 582.924 365.757 582.465 372.611 581.996 378.464 581.267 380.604 581 382.635 580.53 384.721 580.162 414.817 580.327 468.495 579.026 506.734 581.819 509.909 582.051 512.986 582.568 516.12 582.924 517.853 583.121 519.596 583.292 521.334 583.476 527.759 585.745 520.657 583.541 529.677 585.133 531.151 585.394 532.387 585.957 533.848 586.238 542.763 587.955 539.001 586.868 547.405 587.895 549.871 588.197 552.272 588.632 554.705 589L708.004 587.895C711.889 587.843 715.614 587.026 719.475 586.791 724.666 586.473 729.912 586.481 735.118 586.238 741.733 585.929 748.309 585.393 754.932 585.133 802.225 583.278 839.375 583.494 890.502 582.924L932.216 583.476C946.742 583.756 954.491 584.512 969.758 585.133 980.525 585.572 991.298 586 1002.09 586.238 1024.67 586.737 1047.28 586.953 1069.87 587.343 1079.26 587.505 1088.64 587.827 1098.03 587.895 1114.02 588.011 1130.01 587.895 1146 587.895" stroke="#FFFFFF" stroke-width="4" stroke-miterlimit="8" fill="none" fill-rule="evenodd"/></g></svg>