<svg width="9" height="186" xmlns="http://www.w3.org/2000/svg" xmlns:xlink="http://www.w3.org/1999/xlink" overflow="hidden"><defs><clipPath id="clip0"><path d="M635 267 644 267 644 453 635 453Z" fill-rule="evenodd" clip-rule="evenodd"/></clipPath></defs><g clip-path="url(#clip0)" transform="translate(-635 -267)"><path d="M638.187 270C638.345 278.108 637.96 286.218 638.15 294.325 638.197 296.332 638.32 298.335 638.388 300.341 638.685 309.199 638.704 308.144 639.1 312.111 639.496 316.078 640.445 321.004 640.762 324.143 640.841 326.41 640.989 327.998 640.999 330.944 641.009 333.889 640.931 337.039 640.822 341.815 640.713 346.591 640.641 353.784 640.347 359.601 640.054 365.418 639.392 369.255 639.063 376.717 638.735 384.179 638.519 397.434 638.377 404.373 638.235 411.312 638.37 413.816 638.211 418.35 638.473 446.25 638 434.957 638 451" stroke="#FFFFFF" stroke-width="4" stroke-linecap="round" stroke-linejoin="round" stroke-miterlimit="10" fill="none" fill-rule="evenodd"/></g></svg>